<?xml version="1.0" encoding="UTF-8"?>
<svg width="1200pt" height="1200pt" version="1.1" viewBox="0 0 1200 1200" xmlns="http://www.w3.org/2000/svg">
 <path d="m653.05 600 220.95-220.95c14.648-14.648 14.648-38.398 0-53.051-14.648-14.648-38.398-14.648-53.051 0l-220.95 220.95-220.95-220.95c-14.648-14.648-38.398-14.648-53.051 0-14.648 14.648-14.648 38.398 0 53.051l220.95 220.95-220.95 220.95c-14.648 14.648-14.648 38.398 0 53.051 7.3008 7.3008 16.898 11 26.5 11s19.199-3.6484 26.5-11l220.95-220.95 220.95 220.95c7.3008 7.3008 16.898 11 26.5 11 9.6016 0 19.199-3.6484 26.5-11 14.648-14.648 14.648-38.398 0-53.051l-220.95-220.95z" fill="#c6dde2"/>
</svg>
