<?xml version="1.0" encoding="UTF-8"?>
<svg width="1200pt" height="1200pt" version="1.1" viewBox="0 0 1200 1200" xmlns="http://www.w3.org/2000/svg">
 <path d="m320.39 373.29c-16.695 0-30.23 13.535-30.23 30.23 0 16.695 13.535 30.23 30.23 30.23h559.23c16.695 0 30.23-13.535 30.23-30.23 0-16.695-13.535-30.23-30.23-30.23zm0 196.48c-16.695 0-30.23 13.535-30.23 30.23 0 16.695 13.535 30.23 30.23 30.23h559.23c16.695 0 30.23-13.535 30.23-30.23 0-16.695-13.535-30.23-30.23-30.23zm0 196.48c-16.695 0-30.23 13.535-30.23 30.23 0 16.695 13.535 30.23 30.23 30.23h559.23c16.695 0 30.23-13.535 30.23-30.23 0-16.695-13.535-30.23-30.23-30.23z" fill="#c6dde2"/>
</svg>
